<?xml version="1.0" encoding="utf-8"?><svg viewBox="0 0 13 23" xmlns="http://www.w3.org/2000/svg" xmlns:xlink="http://www.w3.org/1999/xlink"><style>:root>svg{display:none}:root>svg:target{display:block}</style><svg viewBox="0 0 13 23" id="next" xmlns="http://www.w3.org/2000/svg"><path d="M12.31 12.56a1.5 1.5 0 000-2.12L2.766.892A1.5 1.5 0 10.643 3.015L9.13 11.5.643 19.985a1.5 1.5 0 102.122 2.122l9.546-9.546zM8.75 13h2.5v-3h-2.5v3z"/></svg><svg viewBox="0 0 13 23" id="prev" xmlns="http://www.w3.org/2000/svg"><path d="M.69 10.44a1.5 1.5 0 000 2.12l9.545 9.547a1.5 1.5 0 102.122-2.122L3.87 11.5l8.486-8.485A1.5 1.5 0 1010.235.893L.69 10.44zM2.75 10h-1v3h1v-3z"/></svg></svg>